<svg xmlns="http://www.w3.org/2000/svg" xmlns:xlink="http://www.w3.org/1999/xlink" version="1.1" x="0px" y="0px" viewBox="0 0 64 80" style="enable-background:new 0 0 64 64;" xml:space="preserve"><g><path d="M57.67,52.83h-3.5V10c0-3.58-2.92-6.5-6.5-6.5H10.33c-2.48,0-4.5,2.02-4.5,4.5v4c0,0.28,0.22,0.5,0.5,0.5h7.5v36.83V56   c0,2.48,2.02,4.5,4.5,4.5h35.33c0,0,0,0,0,0c2.48,0,4.49-2.02,4.49-4.5v-2.67C58.17,53.06,57.94,52.83,57.67,52.83z M13.83,11.5h-7   V8c0-1.93,1.57-3.5,3.5-3.5s3.5,1.57,3.5,3.5V11.5z M18.33,59.5c-1.93,0-3.5-1.57-3.5-3.5v-6.67V12V8c0-1.42-0.67-2.67-1.71-3.5   h34.54c3.03,0,5.5,2.47,5.5,5.5v42.83h-3.5c0,0,0,0,0,0l-27.33,0c-0.28,0-0.5,0.22-0.5,0.5V56C21.83,57.93,20.26,59.5,18.33,59.5z    M57.17,56c0,1.93-1.57,3.5-3.5,3.5H21.13c1.03-0.83,1.71-2.08,1.71-3.5v-2.16l29.5,0h4.83V56z"/><path d="M25.67,29.79c0.23,0.27,0.47,0.53,0.73,0.78c2.15,2.1,4.99,3.26,8,3.26s5.84-1.16,8-3.26c0.26-0.26,0.51-0.53,0.74-0.8   c0,0,0.01-0.01,0.01-0.01c1.74-2.06,2.69-4.63,2.69-7.37c0-6.31-5.13-11.44-11.44-11.44s-11.44,5.13-11.44,11.44   c0,2.73,0.95,5.31,2.69,7.37C25.65,29.77,25.66,29.78,25.67,29.79z M41.69,29.86c-1.97,1.92-4.56,2.98-7.3,2.98   s-5.33-1.06-7.3-2.98c-0.2-0.2-0.39-0.41-0.57-0.62l0.05-1.06c0.1-2.19,1.48-4.12,3.52-4.92c0.14-0.06,0.3,0,0.41,0.12   c0.98,1.14,2.39,1.8,3.89,1.8c1.5,0,2.92-0.66,3.89-1.8c0.11-0.13,0.28-0.18,0.42-0.12c2.04,0.8,3.42,2.73,3.52,4.91l0.05,1.06   C42.08,29.45,41.89,29.66,41.69,29.86z M23.95,22.39c0-5.76,4.69-10.44,10.44-10.44s10.44,4.69,10.44,10.44   c0,2.02-0.58,3.94-1.64,5.6c-0.17-2.52-1.78-4.73-4.13-5.65c-0.53-0.21-1.15-0.05-1.54,0.4c-0.78,0.92-1.93,1.45-3.13,1.45   c-1.21,0-2.35-0.53-3.13-1.45c-0.39-0.45-1.01-0.62-1.54-0.4c-2.36,0.92-3.96,3.13-4.14,5.65C24.52,26.33,23.95,24.41,23.95,22.39z   "/><path d="M34.39,23.17c2.63,0,4.78-2.26,4.78-5.04s-2.14-5.04-4.78-5.04s-4.78,2.26-4.78,5.04S31.76,23.17,34.39,23.17z    M34.39,14.08c2.08,0,3.78,1.81,3.78,4.04s-1.69,4.04-3.78,4.04s-3.78-1.81-3.78-4.04S32.31,14.08,34.39,14.08z"/><path d="M18.67,37.83h30.67c0.28,0,0.5-0.22,0.5-0.5s-0.22-0.5-0.5-0.5H18.67c-0.28,0-0.5,0.22-0.5,0.5S18.39,37.83,18.67,37.83z"/><path d="M18.67,40.5h30.67c0.28,0,0.5-0.22,0.5-0.5s-0.22-0.5-0.5-0.5H18.67c-0.28,0-0.5,0.22-0.5,0.5S18.39,40.5,18.67,40.5z"/><path d="M18.67,43.17h30.67c0.28,0,0.5-0.22,0.5-0.5s-0.22-0.5-0.5-0.5H18.67c-0.28,0-0.5,0.22-0.5,0.5S18.39,43.17,18.67,43.17z"/><path d="M18.67,45.83h30.67c0.28,0,0.5-0.22,0.5-0.5s-0.22-0.5-0.5-0.5H18.67c-0.28,0-0.5,0.22-0.5,0.5S18.39,45.83,18.67,45.83z"/><path d="M49.83,48c0-0.28-0.22-0.5-0.5-0.5H18.67c-0.28,0-0.5,0.22-0.5,0.5s0.22,0.5,0.5,0.5h30.67   C49.61,48.5,49.83,48.28,49.83,48z"/></g><text x="0" y="79" fill="#000000" font-size="5px" font-weight="bold" font-family="'Helvetica Neue', Helvetica, Arial-Unicode, Arial, Sans-serif">Created by Buildhouse10</text><text x="0" y="84" fill="#000000" font-size="5px" font-weight="bold" font-family="'Helvetica Neue', Helvetica, Arial-Unicode, Arial, Sans-serif">from the Noun Project</text></svg>